instance.ufo
<glyph name="one" format="1">
  <advance width="1039"/>
  <unicode hex="0031"/>
  <outline>
    <contour>
      <point x="420" y="0" type="line"/>
      <point x="612" y="0" type="line"/>
      <point x="612" y="1476" type="line"/>
      <point x="560" y="1476" type="line"/>
      <point x="171" y="1327" type="line"/>
      <point x="171" y="1141" type="line"/>
      <point x="420" y="1247" type="line"/>
    </contour>
  </outline>
</glyph>
<glyph name="two" format="1">
  <advance width="904"/>
  <unicode hex="0032"/>
  <outline>
    <contour>
      <point x="102" y="0" type="line"/>
      <point x="823" y="0" type="line"/>
      <point x="823" y="152" type="line"/>
      <point x="320" y="152" type="line"/>
      <point x="586" y="576" type="line" smooth="yes"/>
      <point x="675" y="718"/>
      <point x="790" y="978"/>
      <point x="790" y="1140" type="qcurve" smooth="yes"/>
      <point x="790" y="1280"/>
      <point x="612" y="1476"/>
      <point x="454" y="1476" type="qcurve" smooth="yes"/>
      <point x="294" y="1476"/>
      <point x="108" y="1272"/>
      <point x="108" y="1105" type="qcurve" smooth="yes"/>
      <point x="108" y="1028" type="line"/>
      <point x="293" y="1028" type="line"/>
      <point x="293" y="1077" type="line" smooth="yes"/>
      <point x="293" y="1217"/>
      <point x="378" y="1324"/>
      <point x="446" y="1324" type="qcurve" smooth="yes"/>
      <point x="525" y="1324"/>
      <point x="596" y="1212"/>
      <point x="596" y="1116" type="qcurve" smooth="yes"/>
      <point x="596" y="973"/>
      <point x="527" y="799"/>
      <point x="474" y="714" type="qcurve" smooth="yes"/>
      <point x="102" y="118" type="line"/>
    </contour>
  </outline>
</glyph>
<glyph name="colon" format="1">
  <advance width="582"/>
  <unicode hex="003A"/>
  <outline>
    <contour>
      <point x="176" y="96" type="qcurve" smooth="yes"/>
      <point x="176" y="63"/>
      <point x="227" y="-22"/>
      <point x="290" y="-22" type="qcurve" smooth="yes"/>
      <point x="354" y="-22"/>
      <point x="406" y="63"/>
      <point x="406" y="96" type="qcurve" smooth="yes"/>
      <point x="406" y="130"/>
      <point x="354" y="215"/>
      <point x="290" y="215" type="qcurve" smooth="yes"/>
      <point x="227" y="215"/>
      <point x="176" y="130"/>
    </contour>
    <contour>
      <point x="176" y="949" type="qcurve" smooth="yes"/>
      <point x="176" y="916"/>
      <point x="227" y="831"/>
      <point x="291" y="831" type="qcurve" smooth="yes"/>
      <point x="355" y="831"/>
      <point x="406" y="916"/>
      <point x="406" y="949" type="qcurve" smooth="yes"/>
      <point x="406" y="983"/>
      <point x="355" y="1068"/>
      <point x="291" y="1068" type="qcurve" smooth="yes"/>
      <point x="227" y="1068"/>
      <point x="176" y="983"/>
    </contour>
  </outline>
</glyph>
<glyph name="A" format="1">
  <advance width="683"/>
  <unicode hex="0041"/>
  <outline>
    <contour>
      <point x="0" y="0" type="line"/>
      <point x="47" y="0" type="line"/>
      <point x="311" y="1288" type="line" smooth="yes"/>
      <point x="317" y="1320"/>
      <point x="331" y="1383"/>
      <point x="336" y="1416" type="qcurve"/>
      <point x="342" y="1416" type="line"/>
      <point x="347" y="1383"/>
      <point x="361" y="1320"/>
      <point x="367" y="1288" type="qcurve" smooth="yes"/>
      <point x="633" y="0" type="line"/>
      <point x="683" y="0" type="line"/>
      <point x="402" y="1466" type="line"/>
      <point x="280" y="1466" type="line"/>
    </contour>
    <contour>
      <point x="114" y="440" type="line"/>
      <point x="566" y="440" type="line"/>
      <point x="572" y="490" type="line"/>
      <point x="108" y="490" type="line"/>
    </contour>
  </outline>
</glyph>
<glyph name="B" format="1">
  <advance width="751"/>
  <unicode hex="0042"/>
  <outline>
    <contour>
      <point x="170" y="0" type="line"/>
      <point x="406" y="0" type="line" smooth="yes"/>
      <point x="521" y="0"/>
      <point x="651" y="206"/>
      <point x="651" y="392" type="qcurve" smooth="yes"/>
      <point x="651" y="544"/>
      <point x="560" y="740"/>
      <point x="481" y="762" type="qcurve"/>
      <point x="481" y="766" type="line"/>
      <point x="541" y="787"/>
      <point x="613" y="964"/>
      <point x="613" y="1094" type="qcurve" smooth="yes"/>
      <point x="613" y="1280"/>
      <point x="489" y="1456"/>
      <point x="376" y="1456" type="qcurve" smooth="yes"/>
      <point x="170" y="1456" type="line"/>
    </contour>
    <contour>
      <point x="224" y="50" type="line"/>
      <point x="224" y="733" type="line"/>
      <point x="406" y="733" type="line" smooth="yes"/>
      <point x="504" y="733"/>
      <point x="596" y="548"/>
      <point x="596" y="392" type="qcurve" smooth="yes"/>
      <point x="596" y="236"/>
      <point x="504" y="50"/>
      <point x="406" y="50" type="qcurve" smooth="yes"/>
    </contour>
    <contour>
      <point x="224" y="783" type="line"/>
      <point x="224" y="1406" type="line"/>
      <point x="376" y="1406" type="line" smooth="yes"/>
      <point x="473" y="1406"/>
      <point x="558" y="1244"/>
      <point x="558" y="1094" type="qcurve" smooth="yes"/>
      <point x="558" y="948"/>
      <point x="473" y="783"/>
      <point x="376" y="783" type="qcurve" smooth="yes"/>
    </contour>
  </outline>
</glyph>
<glyph name="E" format="1">
  <advance width="684"/>
  <unicode hex="0045"/>
  <outline>
    <contour>
      <point x="170" y="0" type="line"/>
      <point x="616" y="0" type="line"/>
      <point x="616" y="50" type="line"/>
      <point x="224" y="50" type="line"/>
      <point x="224" y="726" type="line"/>
      <point x="514" y="726" type="line"/>
      <point x="514" y="776" type="line"/>
      <point x="224" y="776" type="line"/>
      <point x="224" y="1406" type="line"/>
      <point x="606" y="1406" type="line"/>
      <point x="606" y="1456" type="line"/>
      <point x="170" y="1456" type="line"/>
    </contour>
  </outline>
</glyph>
<glyph name="J" format="1">
  <advance width="585"/>
  <unicode hex="004A"/>
  <outline>
    <contour>
      <point x="25" y="400" type="line" smooth="yes"/>
      <point x="25" y="200"/>
      <point x="126" y="-30"/>
      <point x="228" y="-30" type="qcurve" smooth="yes"/>
      <point x="330" y="-30"/>
      <point x="430" y="214"/>
      <point x="430" y="425" type="qcurve" smooth="yes"/>
      <point x="430" y="1456" type="line"/>
      <point x="376" y="1456" type="line"/>
      <point x="376" y="425" type="line" smooth="yes"/>
      <point x="376" y="231"/>
      <point x="306" y="20"/>
      <point x="228" y="20" type="qcurve" smooth="yes"/>
      <point x="150" y="20"/>
      <point x="80" y="214"/>
      <point x="80" y="400" type="qcurve" smooth="yes"/>
      <point x="80" y="410" type="line"/>
      <point x="25" y="410" type="line"/>
    </contour>
  </outline>
</glyph>
<glyph name="K" format="1">
  <advance width="740"/>
  <unicode hex="004B"/>
  <outline>
    <contour>
      <point x="170" y="0" type="line"/>
      <point x="224" y="0" type="line"/>
      <point x="224" y="626" type="line"/>
      <point x="776" y="1456" type="line"/>
      <point x="734" y="1456" type="line"/>
      <point x="224" y="743" type="line"/>
      <point x="224" y="1456" type="line"/>
      <point x="170" y="1456" type="line"/>
    </contour>
    <contour>
      <point x="712" y="0" type="line"/>
      <point x="760" y="0" type="line"/>
      <point x="310" y="822" type="line"/>
      <point x="278" y="764" type="line"/>
    </contour>
  </outline>
</glyph>
<glyph name="L" format="1">
  <advance width="618"/>
  <unicode hex="004C"/>
  <outline>
    <contour>
      <point x="170" y="0" type="line"/>
      <point x="594" y="0" type="line"/>
      <point x="594" y="50" type="line"/>
      <point x="224" y="50" type="line"/>
      <point x="224" y="1456" type="line"/>
      <point x="170" y="1456" type="line"/>
    </contour>
  </outline>
</glyph>
<glyph name="M" format="1">
  <advance width="1129"/>
  <unicode hex="004D"/>
  <outline>
    <contour>
      <point x="170" y="0" type="line"/>
      <point x="224" y="0" type="line"/>
      <point x="224" y="1105" type="line" smooth="yes"/>
      <point x="224" y="1145"/>
      <point x="220" y="1245"/>
      <point x="218" y="1285" type="qcurve"/>
      <point x="225" y="1285" type="line"/>
      <point x="229" y="1245"/>
      <point x="244" y="1145"/>
      <point x="253" y="1105" type="qcurve" smooth="yes"/>
      <point x="536" y="0" type="line"/>
      <point x="593" y="0" type="line"/>
      <point x="876" y="1105" type="line" smooth="yes"/>
      <point x="885" y="1145"/>
      <point x="900" y="1245"/>
      <point x="904" y="1285" type="qcurve"/>
      <point x="912" y="1285" type="line"/>
      <point x="909" y="1245"/>
      <point x="905" y="1145"/>
      <point x="905" y="1105" type="qcurve" smooth="yes"/>
      <point x="905" y="0" type="line"/>
      <point x="959" y="0" type="line"/>
      <point x="959" y="1456" type="line"/>
      <point x="889" y="1456" type="line"/>
      <point x="596" y="275" type="line" smooth="yes"/>
      <point x="587" y="235"/>
      <point x="574" y="165"/>
      <point x="569" y="115" type="qcurve"/>
      <point x="564" y="115" type="line"/>
      <point x="559" y="165"/>
      <point x="546" y="235"/>
      <point x="537" y="275" type="qcurve" smooth="yes"/>
      <point x="244" y="1456" type="line"/>
      <point x="170" y="1456" type="line"/>
    </contour>
  </outline>
</glyph>
<glyph name="N" format="1">
  <advance width="886"/>
  <unicode hex="004E"/>
  <outline>
    <contour>
      <point x="170" y="0" type="line"/>
      <point x="224" y="0" type="line"/>
      <point x="224" y="1135" type="line" smooth="yes"/>
      <point x="224" y="1175"/>
      <point x="222" y="1250"/>
      <point x="220" y="1290" type="qcurve"/>
      <point x="225" y="1290" type="line"/>
      <point x="231" y="1250"/>
      <point x="247" y="1185"/>
      <point x="259" y="1155" type="qcurve"/>
      <point x="630" y="0" type="line"/>
      <point x="716" y="0" type="line"/>
      <point x="716" y="1456" type="line"/>
      <point x="662" y="1456" type="line"/>
      <point x="662" y="320" type="line" smooth="yes"/>
      <point x="662" y="280"/>
      <point x="664" y="205"/>
      <point x="666" y="165" type="qcurve"/>
      <point x="661" y="165" type="line"/>
      <point x="655" y="205"/>
      <point x="639" y="270"/>
      <point x="627" y="300" type="qcurve"/>
      <point x="256" y="1456" type="line"/>
      <point x="170" y="1456" type="line"/>
    </contour>
  </outline>
</glyph>
<glyph name="R" format="1">
  <advance width="704"/>
  <unicode hex="0052"/>
  <outline>
    <contour>
      <point x="170" y="0" type="line"/>
      <point x="224" y="0" type="line"/>
      <point x="224" y="650" type="line"/>
      <point x="366" y="650" type="line" smooth="yes"/>
      <point x="498" y="650"/>
      <point x="617" y="873"/>
      <point x="617" y="1053" type="qcurve" smooth="yes"/>
      <point x="617" y="1233"/>
      <point x="498" y="1456"/>
      <point x="366" y="1456" type="qcurve" smooth="yes"/>
      <point x="170" y="1456" type="line"/>
    </contour>
    <contour>
      <point x="224" y="700" type="line"/>
      <point x="224" y="1406" type="line"/>
      <point x="366" y="1406" type="line" smooth="yes"/>
      <point x="476" y="1406"/>
      <point x="562" y="1204"/>
      <point x="562" y="1053" type="qcurve" smooth="yes"/>
      <point x="562" y="902"/>
      <point x="476" y="700"/>
      <point x="366" y="700" type="qcurve" smooth="yes"/>
    </contour>
    <contour>
      <point x="608" y="0" type="line"/>
      <point x="664" y="0" type="line"/>
      <point x="394" y="672" type="line"/>
      <point x="342" y="672" type="line"/>
    </contour>
  </outline>
</glyph>
<glyph name="S" format="1">
  <advance width="679"/>
  <unicode hex="0053"/>
  <outline>
    <contour>
      <point x="90" y="368" type="line" smooth="yes"/>
      <point x="90" y="184"/>
      <point x="231" y="-30"/>
      <point x="347" y="-30" type="qcurve" smooth="yes"/>
      <point x="463" y="-30"/>
      <point x="599" y="178"/>
      <point x="599" y="340" type="qcurve" smooth="yes"/>
      <point x="599" y="494"/>
      <point x="449" y="686"/>
      <point x="352" y="768" type="qcurve" smooth="yes"/>
      <point x="255" y="850"/>
      <point x="161" y="1008"/>
      <point x="161" y="1130" type="qcurve" smooth="yes"/>
      <point x="161" y="1261"/>
      <point x="249" y="1436"/>
      <point x="341" y="1436" type="qcurve" smooth="yes"/>
      <point x="433" y="1436"/>
      <point x="527" y="1237"/>
      <point x="527" y="1094" type="qcurve" smooth="yes"/>
      <point x="527" y="1062" type="line"/>
      <point x="581" y="1062" type="line"/>
      <point x="581" y="1094" type="line" smooth="yes"/>
      <point x="581" y="1258"/>
      <point x="451" y="1486"/>
      <point x="341" y="1486" type="qcurve" smooth="yes"/>
      <point x="231" y="1486"/>
      <point x="107" y="1281"/>
      <point x="107" y="1130" type="qcurve" smooth="yes"/>
      <point x="107" y="983"/>
      <point x="281" y="794"/>
      <point x="374" y="712" type="qcurve" smooth="yes"/>
      <point x="467" y="630"/>
      <point x="545" y="468"/>
      <point x="545" y="340" type="qcurve" smooth="yes"/>
      <point x="545" y="207"/>
      <point x="443" y="20"/>
      <point x="347" y="20" type="qcurve" smooth="yes"/>
      <point x="251" y="20"/>
      <point x="144" y="205"/>
      <point x="144" y="368" type="qcurve" smooth="yes"/>
      <point x="144" y="400" type="line"/>
      <point x="90" y="400" type="line"/>
    </contour>
  </outline>
</glyph>
<glyph name="T" format="1">
  <advance width="658"/>
  <unicode hex="0054"/>
  <outline>
    <contour>
      <point x="24" y="1406" type="line"/>
      <point x="302" y="1406" type="line"/>
      <point x="302" y="0" type="line"/>
      <point x="356" y="0" type="line"/>
      <point x="356" y="1406" type="line"/>
      <point x="634" y="1406" type="line"/>
      <point x="634" y="1456" type="line"/>
      <point x="24" y="1456" type="line"/>
    </contour>
  </outline>
</glyph>
<glyph name="U" format="1">
  <advance width="828"/>
  <unicode hex="0055"/>
  <outline>
    <contour>
      <point x="155" y="470" type="line" smooth="yes"/>
      <point x="155" y="220"/>
      <point x="292" y="-30"/>
      <point x="414" y="-30" type="qcurve" smooth="yes"/>
      <point x="536" y="-30"/>
      <point x="673" y="220"/>
      <point x="673" y="470" type="qcurve" smooth="yes"/>
      <point x="673" y="1456" type="line"/>
      <point x="619" y="1456" type="line"/>
      <point x="619" y="470" type="line" smooth="yes"/>
      <point x="619" y="243"/>
      <point x="510" y="20"/>
      <point x="414" y="20" type="qcurve" smooth="yes"/>
      <point x="318" y="20"/>
      <point x="209" y="242"/>
      <point x="209" y="470" type="qcurve" smooth="yes"/>
      <point x="209" y="1456" type="line"/>
      <point x="155" y="1456" type="line"/>
    </contour>
  </outline>
</glyph>
<glyph name="V" format="1">
  <advance width="616"/>
  <unicode hex="0056"/>
  <outline>
    <contour>
      <point x="0" y="1456" type="line"/>
      <point x="256" y="-10" type="line"/>
      <point x="360" y="-10" type="line"/>
      <point x="616" y="1456" type="line"/>
      <point x="572" y="1456" type="line"/>
      <point x="332" y="178" type="line" smooth="yes"/>
      <point x="326" y="143"/>
      <point x="318" y="83"/>
      <point x="315" y="50" type="qcurve"/>
      <point x="305" y="50" type="line"/>
      <point x="302" y="83"/>
      <point x="294" y="143"/>
      <point x="288" y="178" type="qcurve" smooth="yes"/>
      <point x="48" y="1456" type="line"/>
    </contour>
  </outline>
</glyph>
<glyph name="W" format="1">
  <advance width="1166"/>
  <unicode hex="0057"/>
  <outline>
    <contour>
      <point x="272" y="-10" type="line"/>
      <point x="328" y="-10" type="line"/>
      <point x="569" y="1232" type="line" smooth="yes"/>
      <point x="576" y="1272"/>
      <point x="580" y="1352"/>
      <point x="582" y="1390" type="qcurve"/>
      <point x="584" y="1390" type="line"/>
      <point x="585" y="1352"/>
      <point x="589" y="1272"/>
      <point x="596" y="1232" type="qcurve" smooth="yes"/>
      <point x="838" y="-10" type="line"/>
      <point x="894" y="-10" type="line"/>
      <point x="1116" y="1456" type="line"/>
      <point x="1076" y="1456" type="line"/>
      <point x="876" y="230" type="line" smooth="yes"/>
      <point x="870" y="190"/>
      <point x="867" y="100"/>
      <point x="865" y="60" type="qcurve"/>
      <point x="861" y="60" type="line"/>
      <point x="859" y="100"/>
      <point x="857" y="190"/>
      <point x="850" y="230" type="qcurve" smooth="yes"/>
      <point x="614" y="1456" type="line"/>
      <point x="554" y="1456" type="line"/>
      <point x="314" y="230" type="line" smooth="yes"/>
      <point x="307" y="190"/>
      <point x="305" y="100"/>
      <point x="303" y="60" type="qcurve"/>
      <point x="299" y="60" type="line"/>
      <point x="297" y="100"/>
      <point x="294" y="190"/>
      <point x="288" y="230" type="qcurve" smooth="yes"/>
      <point x="92" y="1456" type="line"/>
      <point x="50" y="1456" type="line"/>
    </contour>
  </outline>
</glyph>
<glyph name="X" format="1">
  <advance width="726"/>
  <unicode hex="0058"/>
  <outline>
    <contour>
      <point x="25" y="0" type="line"/>
      <point x="63" y="0" type="line"/>
      <point x="382" y="713" type="line"/>
      <point x="382" y="713" type="line"/>
      <point x="684" y="1456" type="line"/>
      <point x="646" y="1456" type="line"/>
      <point x="344" y="763" type="line"/>
      <point x="345" y="763" type="line"/>
    </contour>
    <contour>
      <point x="42" y="1456" type="line"/>
      <point x="344" y="713" type="line"/>
      <point x="342" y="713" type="line"/>
      <point x="659" y="0" type="line"/>
      <point x="701" y="0" type="line"/>
      <point x="383" y="763" type="line"/>
      <point x="384" y="763" type="line"/>
      <point x="83" y="1456" type="line"/>
    </contour>
  </outline>
</glyph>
<glyph name="Y" format="1">
  <advance width="654"/>
  <unicode hex="0059"/>
  <outline>
    <contour>
      <point x="300" y="0" type="line"/>
      <point x="354" y="0" type="line"/>
      <point x="354" y="600" type="line"/>
      <point x="639" y="1456" type="line"/>
      <point x="596" y="1456" type="line"/>
      <point x="367" y="835" type="line" smooth="yes"/>
      <point x="356" y="805"/>
      <point x="339" y="745"/>
      <point x="332" y="715" type="qcurve"/>
      <point x="328" y="715" type="line"/>
      <point x="320" y="745"/>
      <point x="302" y="805"/>
      <point x="292" y="835" type="qcurve" smooth="yes"/>
      <point x="63" y="1456" type="line"/>
      <point x="15" y="1456" type="line"/>
      <point x="300" y="600" type="line"/>
    </contour>
  </outline>
</glyph>
<glyph name="o" format="1">
  <advance width="892"/>
  <unicode hex="006F"/>
  <outline>
    <contour>
      <point x="85" y="490" type="line" smooth="yes"/>
      <point x="85" y="288"/>
      <point x="273" y="-20"/>
      <point x="447" y="-20" type="qcurve" smooth="yes"/>
      <point x="620" y="-20"/>
      <point x="807" y="288"/>
      <point x="807" y="490" type="qcurve" smooth="yes"/>
      <point x="807" y="564" type="line" smooth="yes"/>
      <point x="807" y="770"/>
      <point x="624" y="1072"/>
      <point x="446" y="1072" type="qcurve" smooth="yes"/>
      <point x="273" y="1072"/>
      <point x="85" y="763"/>
      <point x="85" y="564" type="qcurve" smooth="yes"/>
    </contour>
    <contour>
      <point x="275" y="564" type="line" smooth="yes"/>
      <point x="275" y="723"/>
      <point x="371" y="920"/>
      <point x="446" y="920" type="qcurve" smooth="yes"/>
      <point x="522" y="920"/>
      <point x="617" y="723"/>
      <point x="617" y="564" type="qcurve" smooth="yes"/>
      <point x="617" y="490" type="line" smooth="yes"/>
      <point x="617" y="326"/>
      <point x="522" y="132"/>
      <point x="447" y="132" type="qcurve" smooth="yes"/>
      <point x="371" y="132"/>
      <point x="275" y="326"/>
      <point x="275" y="490" type="qcurve" smooth="yes"/>
    </contour>
  </outline>
</glyph>
<glyph name="w" format="1">
  <advance width="1101"/>
  <unicode hex="0077"/>
  <outline>
    <contour>
      <point x="24" y="1052" type="line"/>
      <point x="238" y="0" type="line"/>
      <point x="395" y="0" type="line"/>
      <point x="516" y="549" type="line" smooth="yes"/>
      <point x="524" y="586"/>
      <point x="539" y="733"/>
      <point x="543" y="808" type="qcurve"/>
      <point x="545" y="808" type="line"/>
      <point x="551" y="734"/>
      <point x="567" y="586"/>
      <point x="576" y="547" type="qcurve" smooth="yes"/>
      <point x="707" y="0" type="line"/>
      <point x="863" y="0" type="line"/>
      <point x="1077" y="1052" type="line"/>
      <point x="898" y="1052" type="line"/>
      <point x="803" y="516" type="line" smooth="yes"/>
      <point x="787" y="427"/>
      <point x="780" y="335"/>
      <point x="780" y="275" type="qcurve"/>
      <point x="778" y="275" type="line"/>
      <point x="778" y="335"/>
      <point x="765" y="433"/>
      <point x="748" y="512" type="qcurve" smooth="yes"/>
      <point x="629" y="1052" type="line"/>
      <point x="471" y="1052" type="line"/>
      <point x="359" y="514" type="line" smooth="yes"/>
      <point x="342" y="433"/>
      <point x="329" y="336"/>
      <point x="329" y="276" type="qcurve"/>
      <point x="327" y="276" type="line"/>
      <point x="327" y="336"/>
      <point x="316" y="426"/>
      <point x="300" y="517" type="qcurve" smooth="yes"/>
      <point x="204" y="1052" type="line"/>
    </contour>
  </outline>
</glyph>
<glyph name="z" format="1">
  <advance width="764"/>
  <unicode hex="007A"/>
  <outline>
    <contour>
      <point x="68" y="0" type="line"/>
      <point x="702" y="0" type="line"/>
      <point x="702" y="152" type="line"/>
      <point x="272" y="152" type="line"/>
      <point x="683" y="938" type="line"/>
      <point x="683" y="1052" type="line"/>
      <point x="74" y="1052" type="line"/>
      <point x="74" y="899" type="line"/>
      <point x="475" y="899" type="line"/>
      <point x="68" y="119" type="line"/>
    </contour>
  </outline>
</glyph>
<glyph name="registered" format="1">
  <advance width="1302"/>
  <unicode hex="00AE"/>
  <outline>
    <contour>
      <point x="262" y="699" type="qcurve" smooth="yes"/>
      <point x="262" y="974"/>
      <point x="486" y="1331"/>
      <point x="652" y="1331" type="qcurve" smooth="yes"/>
      <point x="808" y="1331"/>
      <point x="1039" y="963"/>
      <point x="1039" y="699" type="qcurve" smooth="yes"/>
      <point x="1039" y="410"/>
      <point x="817" y="64"/>
      <point x="652" y="64" type="qcurve" smooth="yes"/>
      <point x="494" y="64"/>
      <point x="262" y="434"/>
    </contour>
    <contour>
      <point x="94" y="699" type="qcurve" smooth="yes"/>
      <point x="94" y="376"/>
      <point x="422" y="-82"/>
      <point x="652" y="-82" type="qcurve" smooth="yes"/>
      <point x="888" y="-82"/>
      <point x="1208" y="370"/>
      <point x="1208" y="699" type="qcurve" smooth="yes"/>
      <point x="1208" y="1020"/>
      <point x="881" y="1478"/>
      <point x="652" y="1478" type="qcurve" smooth="yes"/>
      <point x="422" y="1478"/>
      <point x="94" y="1020"/>
    </contour>
    <contour>
      <point x="640" y="630" type="line"/>
      <point x="774" y="286" type="line"/>
      <point x="940" y="286" type="line"/>
      <point x="772" y="713" type="line"/>
    </contour>
    <contour>
      <point x="727" y="595" type="line"/>
      <point x="774" y="630" type="line"/>
      <point x="829" y="659"/>
      <point x="907" y="805"/>
      <point x="907" y="870" type="qcurve" smooth="yes"/>
      <point x="907" y="986"/>
      <point x="778" y="1135"/>
      <point x="657" y="1135" type="qcurve" smooth="yes"/>
      <point x="418" y="1135" type="line"/>
      <point x="418" y="287" type="line"/>
      <point x="589" y="287" type="line"/>
      <point x="589" y="595" type="line"/>
    </contour>
    <contour>
      <point x="589" y="1008" type="line"/>
      <point x="677" y="1008" type="line" smooth="yes"/>
      <point x="693" y="1008"/>
      <point x="734" y="951"/>
      <point x="734" y="864" type="qcurve" smooth="yes"/>
      <point x="734" y="791"/>
      <point x="691" y="724"/>
      <point x="651" y="723" type="qcurve" smooth="yes"/>
      <point x="589" y="723" type="line"/>
    </contour>
  </outline>
</glyph>
<glyph name="cedilla" format="1">
  <advance width="933"/>
  <unicode hex="00B8"/>
  <outline>
    <contour>
      <point x="410" y="0" type="line"/>
      <point x="370" y="-215" type="line"/>
      <point x="451" y="-215"/>
      <point x="500" y="-257"/>
      <point x="500" y="-305" type="qcurve" smooth="yes"/>
      <point x="500" y="-354"/>
      <point x="414" y="-408"/>
      <point x="302" y="-408" type="qcurve"/>
      <point x="306" y="-535" type="line"/>
      <point x="535" y="-535"/>
      <point x="673" y="-377"/>
      <point x="673" y="-296" type="qcurve" smooth="yes"/>
      <point x="673" y="-230"/>
      <point x="591" y="-131"/>
      <point x="528" y="-115" type="qcurve"/>
      <point x="554" y="0" type="line"/>
    </contour>
  </outline>
</glyph>
<glyph name="ordmasculine" format="1">
  <advance width="765"/>
  <unicode hex="00BA"/>
  <outline>
    <contour>
      <point x="78" y="1020" type="line" smooth="yes"/>
      <point x="78" y="861"/>
      <point x="229" y="603"/>
      <point x="382" y="603" type="qcurve" smooth="yes"/>
      <point x="533" y="603"/>
      <point x="687" y="855"/>
      <point x="687" y="993" type="qcurve" smooth="yes"/>
      <point x="687" y="1067" type="line" smooth="yes"/>
      <point x="687" y="1220"/>
      <point x="536" y="1473"/>
      <point x="381" y="1473" type="qcurve" smooth="yes"/>
      <point x="231" y="1473"/>
      <point x="78" y="1220"/>
      <point x="78" y="1085" type="qcurve" smooth="yes"/>
    </contour>
    <contour>
      <point x="264" y="1092" type="line" smooth="yes"/>
      <point x="264" y="1192"/>
      <point x="325" y="1326"/>
      <point x="381" y="1326" type="qcurve" smooth="yes"/>
      <point x="439" y="1326"/>
      <point x="501" y="1188"/>
      <point x="501" y="1074" type="qcurve" smooth="yes"/>
      <point x="501" y="1002" type="line" smooth="yes"/>
      <point x="501" y="896"/>
      <point x="439" y="750"/>
      <point x="383" y="750" type="qcurve" smooth="yes"/>
      <point x="326" y="750"/>
      <point x="264" y="902"/>
      <point x="264" y="1029" type="qcurve" smooth="yes"/>
    </contour>
  </outline>
</glyph>
<glyph name="Oslash" format="1">
  <advance width="1113"/>
  <unicode hex="00D8"/>
  <outline>
    <contour>
      <point x="102" y="682" type="line" smooth="yes"/>
      <point x="102" y="367"/>
      <point x="346" y="-30"/>
      <point x="551" y="-30" type="qcurve" smooth="yes"/>
      <point x="758" y="-30"/>
      <point x="998" y="371"/>
      <point x="998" y="682" type="qcurve" smooth="yes"/>
      <point x="998" y="774" type="line" smooth="yes"/>
      <point x="998" y="1087"/>
      <point x="758" y="1486"/>
      <point x="550" y="1486" type="qcurve" smooth="yes"/>
      <point x="348" y="1486"/>
      <point x="102" y="1084"/>
      <point x="102" y="774" type="qcurve" smooth="yes"/>
    </contour>
    <contour>
      <point x="299" y="682" type="qcurve" smooth="yes"/>
      <point x="299" y="776" type="line" smooth="yes"/>
      <point x="299" y="1050"/>
      <point x="448" y="1322"/>
      <point x="550" y="1322" type="qcurve" smooth="yes"/>
      <point x="656" y="1322"/>
      <point x="801" y="1048"/>
      <point x="801" y="776" type="qcurve" smooth="yes"/>
      <point x="801" y="682" type="line" smooth="yes"/>
      <point x="801" y="406"/>
      <point x="659" y="133"/>
      <point x="551" y="133" type="qcurve" smooth="yes"/>
      <point x="450" y="133"/>
      <point x="299" y="408"/>
    </contour>
    <contour>
      <point x="99" y="-83" type="line"/>
      <point x="285" y="-83" type="line"/>
      <point x="389" y="150" type="line"/>
      <point x="390" y="174" type="line"/>
      <point x="617" y="683" type="line"/>
      <point x="489" y="798" type="line"/>
      <point x="265" y="268" type="line"/>
      <point x="248" y="258" type="line"/>
    </contour>
    <contour>
      <point x="805" y="1526" type="line"/>
      <point x="705" y="1300" type="line"/>
      <point x="705" y="1278" type="line"/>
      <point x="477" y="770" type="line"/>
      <point x="605" y="655" type="line"/>
      <point x="846" y="1215" type="line"/>
      <point x="859" y="1230" type="line"/>
      <point x="989" y="1526" type="line"/>
    </contour>
  </outline>
</glyph>
<glyph name="perthousand" format="1">
  <advance width="1715"/>
  <unicode hex="2030"/>
  <outline>
    <contour>
      <point x="72" y="982" type="line" smooth="yes"/>
      <point x="72" y="868"/>
      <point x="204" y="668"/>
      <point x="318" y="668" type="qcurve" smooth="yes"/>
      <point x="432" y="668"/>
      <point x="561" y="868"/>
      <point x="561" y="982" type="qcurve" smooth="yes"/>
      <point x="561" y="1169" type="line" smooth="yes"/>
      <point x="561" y="1284"/>
      <point x="432" y="1485"/>
      <point x="317" y="1485" type="qcurve" smooth="yes"/>
      <point x="203" y="1485"/>
      <point x="72" y="1284"/>
      <point x="72" y="1169" type="qcurve" smooth="yes"/>
    </contour>
    <contour>
      <point x="250" y="980" type="qcurve" smooth="yes"/>
      <point x="250" y="1171" type="line" smooth="yes"/>
      <point x="250" y="1243"/>
      <point x="293" y="1332"/>
      <point x="317" y="1332" type="qcurve" smooth="yes"/>
      <point x="340" y="1332"/>
      <point x="384" y="1243"/>
      <point x="384" y="1171" type="qcurve" smooth="yes"/>
      <point x="384" y="980" type="line" smooth="yes"/>
      <point x="384" y="909"/>
      <point x="342" y="821"/>
      <point x="318" y="821" type="qcurve" smooth="yes"/>
      <point x="294" y="821"/>
      <point x="250" y="909"/>
    </contour>
    <contour>
      <point x="963" y="1411" type="line"/>
      <point x="851" y="1519" type="line"/>
      <point x="225" y="27" type="line"/>
      <point x="336" y="-81" type="line"/>
    </contour>
    <contour>
      <point x="652" y="291" type="line" smooth="yes"/>
      <point x="652" y="178"/>
      <point x="777" y="-23"/>
      <point x="898" y="-23" type="qcurve" smooth="yes"/>
      <point x="1019" y="-23"/>
      <point x="1141" y="178"/>
      <point x="1141" y="291" type="qcurve" smooth="yes"/>
      <point x="1141" y="478" type="line" smooth="yes"/>
      <point x="1141" y="592"/>
      <point x="1019" y="794"/>
      <point x="896" y="794" type="qcurve" smooth="yes"/>
      <point x="776" y="794"/>
      <point x="652" y="592"/>
      <point x="652" y="478" type="qcurve" smooth="yes"/>
    </contour>
    <contour>
      <point x="829" y="289" type="qcurve" smooth="yes"/>
      <point x="829" y="480" type="line" smooth="yes"/>
      <point x="829" y="553"/>
      <point x="867" y="641"/>
      <point x="896" y="641" type="qcurve" smooth="yes"/>
      <point x="926" y="641"/>
      <point x="963" y="553"/>
      <point x="963" y="480" type="qcurve" smooth="yes"/>
      <point x="963" y="289" type="line" smooth="yes"/>
      <point x="963" y="216"/>
      <point x="928" y="130"/>
      <point x="898" y="130" type="qcurve" smooth="yes"/>
      <point x="867" y="130"/>
      <point x="829" y="217"/>
    </contour>
    <contour>
      <point x="1154" y="291" type="line" smooth="yes"/>
      <point x="1154" y="178"/>
      <point x="1278" y="-23"/>
      <point x="1399" y="-23" type="qcurve" smooth="yes"/>
      <point x="1520" y="-23"/>
      <point x="1643" y="178"/>
      <point x="1643" y="291" type="qcurve" smooth="yes"/>
      <point x="1643" y="478" type="line" smooth="yes"/>
      <point x="1643" y="592"/>
      <point x="1520" y="794"/>
      <point x="1398" y="794" type="qcurve" smooth="yes"/>
      <point x="1278" y="794"/>
      <point x="1154" y="592"/>
      <point x="1154" y="478" type="qcurve" smooth="yes"/>
    </contour>
    <contour>
      <point x="1331" y="289" type="qcurve" smooth="yes"/>
      <point x="1331" y="480" type="line" smooth="yes"/>
      <point x="1331" y="553"/>
      <point x="1368" y="641"/>
      <point x="1398" y="641" type="qcurve" smooth="yes"/>
      <point x="1427" y="641"/>
      <point x="1465" y="553"/>
      <point x="1465" y="480" type="qcurve" smooth="yes"/>
      <point x="1465" y="289" type="line" smooth="yes"/>
      <point x="1465" y="216"/>
      <point x="1429" y="130"/>
      <point x="1399" y="130" type="qcurve" smooth="yes"/>
      <point x="1369" y="130"/>
      <point x="1331" y="217"/>
    </contour>
  </outline>
</glyph>
<glyph name="trademark" format="1">
  <advance width="1180"/>
  <unicode hex="2122"/>
  <outline>
    <contour>
      <point x="912" y="822" type="line"/>
      <point x="1070" y="822" type="line"/>
      <point x="1070" y="1456" type="line"/>
      <point x="881" y="1456" type="line"/>
      <point x="783" y="1089" type="line"/>
      <point x="688" y="1456" type="line"/>
      <point x="494" y="1456" type="line"/>
      <point x="494" y="821" type="line"/>
      <point x="646" y="821" type="line"/>
      <point x="646" y="1048" type="line"/>
      <point x="704" y="821" type="line"/>
      <point x="853" y="821" type="line"/>
      <point x="912" y="1051" type="line"/>
    </contour>
    <contour>
      <point x="512" y="1456" type="line"/>
      <point x="68" y="1456" type="line"/>
      <point x="68" y="1310" type="line"/>
      <point x="208" y="1310" type="line"/>
      <point x="208" y="821" type="line"/>
      <point x="379" y="821" type="line"/>
      <point x="379" y="1310" type="line"/>
      <point x="512" y="1310" type="line"/>
    </contour>
  </outline>
</glyph>
<glyph name="three.pnum" format="1">
  <advance width="807"/>
  <outline>
    <contour>
      <point x="39" y="393" type="line"/>
      <point x="39" y="386" type="line" smooth="yes"/>
      <point x="39" y="204"/>
      <point x="232" y="-30"/>
      <point x="393" y="-30" type="qcurve" smooth="yes"/>
      <point x="559" y="-30"/>
      <point x="751" y="209"/>
      <point x="751" y="404" type="qcurve" smooth="yes"/>
      <point x="751" y="549"/>
      <point x="621" y="740"/>
      <point x="547" y="766" type="qcurve"/>
      <point x="632" y="819"/>
      <point x="705" y="1022"/>
      <point x="705" y="1101" type="qcurve" smooth="yes"/>
      <point x="705" y="1267"/>
      <point x="535" y="1479"/>
      <point x="384" y="1479" type="qcurve" smooth="yes"/>
      <point x="238" y="1479"/>
      <point x="70" y="1239"/>
      <point x="70" y="1094" type="qcurve" smooth="yes"/>
      <point x="70" y="1085" type="line"/>
      <point x="256" y="1085" type="line"/>
      <point x="256" y="1091" type="line" smooth="yes"/>
      <point x="256" y="1212"/>
      <point x="330" y="1324"/>
      <point x="384" y="1324" type="qcurve" smooth="yes"/>
      <point x="441" y="1324"/>
      <point x="518" y="1214"/>
      <point x="518" y="1078" type="qcurve" smooth="yes"/>
      <point x="518" y="944"/>
      <point x="435" y="836"/>
      <point x="359" y="836" type="qcurve" smooth="yes"/>
      <point x="254" y="836" type="line"/>
      <point x="254" y="681" type="line"/>
      <point x="370" y="681" type="line" smooth="yes"/>
      <point x="449" y="681"/>
      <point x="561" y="555"/>
      <point x="561" y="400" type="qcurve" smooth="yes"/>
      <point x="561" y="256"/>
      <point x="468" y="125"/>
      <point x="393" y="125" type="qcurve" smooth="yes"/>
      <point x="324" y="125"/>
      <point x="225" y="251"/>
      <point x="225" y="387" type="qcurve" smooth="yes"/>
      <point x="225" y="393" type="line"/>
    </contour>
  </outline>
</glyph>
